<svg version="1.1" xmlns="http://www.w3.org/2000/svg" style="display: block;" viewBox="0 0 2048 2048" width="1024" height="1024" preserveAspectRatio="none">
<path transform="translate(0,0)" fill="rgb(222,198,158)" d="M 0 0 L 2048 0 L 2048 2048 L 0 2048 L 0 0 z"/>
<path transform="translate(0,0)" fill="rgb(0,0,0)" d="M 1088.34 502.793 L 1453.53 502.884 L 1453.33 834.963 L 1453.58 1545.11 C 1372.6 1546.22 1289.88 1545.37 1208.74 1545.43 L 1208.67 891.5 C 1208.95 877.09 1208.74 862.196 1208.7 847.747 C 1205.76 858.702 1200.97 899.089 1199.18 911.815 L 1179.65 1053.88 L 1111.59 1545.48 L 940.268 1545.18 C 935.929 1525.46 932.098 1492.2 928.948 1471.06 L 906.917 1323.15 L 838.732 861.897 C 836.967 878.418 838.033 915.266 838.145 932.919 C 838.541 975.226 838.712 1017.53 838.658 1059.84 C 838.587 1220.85 840.195 1384.53 838.435 1545.26 C 811.307 1545.86 781.787 1545.23 754.46 1545.18 L 594.374 1545.06 L 594.444 828.92 C 593.935 720.24 593.974 611.558 594.56 502.878 L 953.626 502.887 L 1024.98 989.675 C 1044.13 827.8 1069.03 664.72 1088.34 502.793 z"/>
</svg>